<svg width="96" height="96" viewBox="0 0 96 96" fill="none" xmlns="http://www.w3.org/2000/svg">
<g clip-path="url(#clip0_106_254)">
<path d="M96 63.99H91.41V68.58H96V63.99Z" fill="#1D1D1D"/>
<path d="M91.41 41.16H73.14V22.86H77.7V18.3H73.14V13.71H22.86V18.3H18.27V22.86H13.71V27.42H9.15V32.01H4.56V36.57H0V50.28H4.56V45.72H27.42V54.87H31.98V63.99H36.57V73.14H41.13V82.29H45.72V45.72H63.99V54.87H59.43V63.99H54.84V73.14H50.28V82.29H45.72V86.85H41.13V91.44H45.72V96H50.28V91.44H54.84V86.85H59.43V82.29H63.99V77.73H68.58V73.14H73.14V68.58H77.7V63.99H82.29V59.43H86.85V54.87H91.41V50.28H96V36.57H91.41V41.16ZM63.99 41.16H31.98V36.57H27.42V18.3H45.72V22.86H50.28V27.42H54.84V32.01H59.43V36.57H63.99V41.16Z" fill="#1D1D1D"/>
<path d="M91.4101 77.73H86.8501V82.29H91.4101V77.73Z" fill="#1D1D1D"/>
<path d="M91.4101 32.01H86.8501V36.57H91.4101V32.01Z" fill="#1D1D1D"/>
<path d="M86.85 82.29H82.29V86.85H86.85V82.29Z" fill="#1D1D1D"/>
<path d="M86.85 73.1401H82.29V77.7301H86.85V73.1401Z" fill="#1D1D1D"/>
<path d="M86.85 27.4199H82.29V32.0099H86.85V27.4199Z" fill="#1D1D1D"/>
<path d="M82.29 9.15006H77.7V13.7101H82.29V18.3001H86.85V13.7101H91.41V9.15006H86.85V4.56006H82.29V9.15006Z" fill="#1D1D1D"/>
<path d="M82.29 77.73H77.7V82.29H82.29V77.73Z" fill="#1D1D1D"/>
<path d="M82.29 22.8599H77.7V27.4199H82.29V22.8599Z" fill="#1D1D1D"/>
<path d="M73.14 91.4399H68.58V95.9999H73.14V91.4399Z" fill="#1D1D1D"/>
<path d="M73.14 0H68.58V4.56H73.14V0Z" fill="#1D1D1D"/>
<path d="M45.72 22.8599H41.13V27.4199H45.72V22.8599Z" fill="#1D1D1D"/>
<path d="M45.72 4.56006H41.13V9.15006H45.72V4.56006Z" fill="#1D1D1D"/>
<path d="M41.1301 82.29H36.5701V86.85H41.1301V82.29Z" fill="#1D1D1D"/>
<path d="M41.1301 27.4199H36.5701V32.0099H41.1301V27.4199Z" fill="#1D1D1D"/>
<path d="M36.57 77.73H31.98V82.29H36.57V77.73Z" fill="#1D1D1D"/>
<path d="M36.57 32.01H31.98V36.57H36.57V32.01Z" fill="#1D1D1D"/>
<path d="M31.98 86.8501H27.42V91.4401H31.98V86.8501Z" fill="#1D1D1D"/>
<path d="M31.98 73.1401H27.42V77.7301H31.98V73.1401Z" fill="#1D1D1D"/>
<path d="M27.42 68.5801H22.86V73.1401H27.42V68.5801Z" fill="#1D1D1D"/>
<path d="M22.86 63.99H18.27V68.58H22.86V63.99Z" fill="#1D1D1D"/>
<path d="M18.27 59.4299H13.71V63.9899H18.27V59.4299Z" fill="#1D1D1D"/>
<path d="M18.27 9.1499H13.71V13.7099H18.27V9.1499Z" fill="#1D1D1D"/>
<path d="M9.14994 73.1401V77.7301H4.55994V82.2901H9.14994V86.8501H13.7099V82.2901H18.2699V77.7301H13.7099V73.1401H9.14994Z" fill="#1D1D1D"/>
<path d="M13.7099 54.8699H9.1499V59.4299H13.7099V54.8699Z" fill="#1D1D1D"/>
<path d="M13.7099 13.71H9.1499V18.3H13.7099V13.71Z" fill="#1D1D1D"/>
<path d="M13.7099 4.56006H9.1499V9.15006H13.7099V4.56006Z" fill="#1D1D1D"/>
<path d="M9.14994 50.28H4.55994V54.87H9.14994V50.28Z" fill="#1D1D1D"/>
<path d="M9.14994 9.1499H4.55994V13.7099H9.14994V9.1499Z" fill="#1D1D1D"/>
<path d="M4.56 63.99H0V68.58H4.56V63.99Z" fill="#1D1D1D"/>
</g>
<defs>
<clipPath id="clip0_106_254">
<rect width="96" height="96" fill="white"/>
</clipPath>
</defs>
</svg>
