<svg width="182" height="126" viewBox="0 0 182 126" fill="none" xmlns="http://www.w3.org/2000/svg">
<path d="M1 57C1 26.0721 26.0721 1 57 1H125C155.928 1 181 26.0721 181 57V65C181 95.9279 155.928 121 125 121H1V57Z" fill="#CFF538"/>
<path d="M0 57C0 25.5198 25.5198 0 57 0H125C156.48 0 182 25.5198 182 57H180C180 26.6243 155.376 2 125 2H57C26.6243 2 2 26.6243 2 57H0ZM182 69C182 100.48 156.48 126 125 126H0L2 116H125C155.376 116 180 93.1665 180 65L182 69ZM0 126V57C0 25.5198 25.5198 0 57 0V2C26.6243 2 2 26.6243 2 57V116L0 126ZM125 0C156.48 0 182 25.5198 182 57V69C182 100.48 156.48 126 125 126V116C155.376 116 180 93.1665 180 65V57C180 26.6243 155.376 2 125 2V0Z" fill="#1D1D1D"/>
<path d="M95.58 41.1999V44.2399H92.54V50.3399H95.58V47.2799H98.62V44.2399H119.96V47.2799H116.92V50.3399H119.96V53.3799H123V41.1999H95.58Z" fill="#1D1D1D"/>
<path d="M119.96 53.3801H116.92V59.4801H119.96V53.3801Z" fill="#1D1D1D"/>
<path d="M113.86 62.52H89.4799V59.48H86.4399V65.58H116.92V59.48H113.86V62.52Z" fill="#1D1D1D"/>
<path d="M116.92 50.3401H113.86V53.3801H116.92V50.3401Z" fill="#1D1D1D"/>
<path d="M113.86 35.1001H110.82V38.1401H113.86V35.1001Z" fill="#1D1D1D"/>
<path d="M62.06 68.6201V35.1001H59V77.7601H62.06V80.8201H77.3V83.8601H80.34V80.8201H92.54V83.8601H95.58V80.8201H110.82V77.7601H113.86V68.6201H62.06Z" fill="#1D1D1D"/>
<path d="M113.86 53.3801H104.72V56.4401H113.86V53.3801Z" fill="#1D1D1D"/>
<path d="M104.72 50.3401H101.68V53.3801H104.72V50.3401Z" fill="#1D1D1D"/>
<path d="M101.68 47.28H98.6201V50.34H101.68V47.28Z" fill="#1D1D1D"/>
<path d="M77.3 86.9V83.86H74.24V89.96H98.62V83.86H95.58V86.9H77.3Z" fill="#1D1D1D"/>
<path d="M92.54 50.3401H89.48V59.4801H92.54V50.3401Z" fill="#1D1D1D"/>
<path d="M86.4401 50.3401H77.3V53.3801H86.4401V50.3401Z" fill="#1D1D1D"/>
<path d="M83.38 56.4399H74.24V59.4799H83.38V56.4399Z" fill="#1D1D1D"/>
<path d="M83.38 44.2399H74.24V47.2799H83.38V44.2399Z" fill="#1D1D1D"/>
<path d="M74.24 50.3401H71.2V53.3801H74.24V50.3401Z" fill="#1D1D1D"/>
<path d="M71.1999 56.4399H68.1399V59.4799H71.1999V56.4399Z" fill="#1D1D1D"/>
<path d="M71.1999 44.2399H68.1399V47.2799H71.1999V44.2399Z" fill="#1D1D1D"/>
<path d="M110.82 32.04H62.0601V35.1H110.82V32.04Z" fill="#1D1D1D"/>
</svg>
