<svg width="96" height="96" viewBox="0 0 96 96" fill="none" xmlns="http://www.w3.org/2000/svg">
<g clip-path="url(#clip0_106_156)">
<path d="M91.4401 66.2702H45.7201V61.7102H41.1601V84.5702H36.5701V93.7202H91.4401V89.1302H96.0001V61.7102H91.4401V66.2702ZM54.8701 84.5702H50.2801V70.8602H54.8701V84.5702ZM68.5801 80.0102H64.0201V70.8602H68.5801V80.0102ZM77.7301 80.0102H73.1401V70.8602H77.7301V80.0102ZM86.8501 84.5702H82.2901V70.8602H86.8501V84.5702Z" fill="white"/>
<path d="M91.44 57.1501H82.29V61.7101H91.44V57.1501Z" fill="white"/>
<path d="M82.29 52.5601H77.73V57.1501H82.29V52.5601Z" fill="white"/>
<path d="M82.29 20.5798H77.73V34.2898H82.29V20.5798Z" fill="white"/>
<path d="M77.7301 34.2903H73.1401V52.5603H77.7301V34.2903Z" fill="white"/>
<path d="M73.14 25.1399H64.02V34.2899H73.14V25.1399Z" fill="white"/>
<path d="M64.0199 34.2903H59.4299V52.5603H64.0199V34.2903Z" fill="white"/>
<path d="M77.7299 20.5802V15.9902H64.0199V11.4302H59.4299V20.5802H77.7299Z" fill="white"/>
<path d="M59.4301 52.5601H54.8701V57.1501H59.4301V52.5601Z" fill="white"/>
<path d="M59.43 20.5798H54.87V29.6998H50.28V34.2898H59.43V20.5798Z" fill="white"/>
<path d="M54.87 57.1501H45.72V61.7101H54.87V57.1501Z" fill="white"/>
<path d="M45.7199 15.9902V11.4302H18.2999V15.9902H9.1499V20.5802H13.7099V25.1402H18.2999V29.7002H45.7199V25.1402H50.2799V20.5802H54.8699V15.9902H45.7199Z" fill="white"/>
<path d="M59.43 6.87012H50.28V11.4301H59.43V6.87012Z" fill="white"/>
<path d="M13.71 34.2903V38.8503H41.16V43.4403H45.72V38.8503H50.28V34.2903H13.71Z" fill="white"/>
<path d="M41.16 43.4399H32.01V47.9999H41.16V43.4399Z" fill="white"/>
<path d="M32.0101 48H22.8601V52.56H32.0101V48Z" fill="white"/>
<path d="M50.28 2.28003H13.71V6.87003H50.28V2.28003Z" fill="white"/>
<path d="M36.57 75.4202H13.71V80.0102H36.57V75.4202Z" fill="white"/>
<path d="M22.8599 52.5601H9.1499V57.1501H22.8599V52.5601Z" fill="white"/>
<path d="M13.7099 70.8601H9.1499V75.4201H13.7099V70.8601Z" fill="white"/>
<path d="M13.7099 29.7H9.1499V34.29H13.7099V29.7Z" fill="white"/>
<path d="M13.7101 6.87012H4.59009V11.4301H13.7101V6.87012Z" fill="white"/>
<path d="M9.15009 66.2698H4.59009V70.8598H9.15009V66.2698Z" fill="white"/>
<path d="M4.59 48.0002V29.7002H9.15V25.1402H4.59V11.4302H0V66.2702H4.59V52.5602H9.15V48.0002H4.59Z" fill="white"/>
</g>
<defs>
<clipPath id="clip0_106_156">
<rect width="96" height="96" fill="white"/>
</clipPath>
</defs>
</svg>
