<svg width="96" height="96" viewBox="0 0 96 96" fill="none" xmlns="http://www.w3.org/2000/svg">
<path d="M87.29 36.57H82.73V31.98H78.14V36.57H73.58V41.13H69.02V45.72H73.58V50.28H78.14V54.84H82.73V50.28H87.29V45.72H91.85V41.13H87.29V36.57Z" fill="#1D1D1D"/>
<path d="M73.58 31.98H69.02V36.57H73.58V31.98Z" fill="#1D1D1D"/>
<path d="M69.0199 59.4299H64.4299V77.6999H69.0199V59.4299Z" fill="#1D1D1D"/>
<path d="M69.0199 27.4199H64.4299V31.9799H69.0199V27.4199Z" fill="#1D1D1D"/>
<path d="M64.4301 77.7H59.8701V82.29H64.4301V77.7Z" fill="#1D1D1D"/>
<path d="M64.4301 54.8401H59.8701V59.4301H64.4301V54.8401Z" fill="#1D1D1D"/>
<path d="M64.4301 22.8601H59.8701V27.4201H64.4301V22.8601Z" fill="#1D1D1D"/>
<path d="M59.87 45.72H55.28V54.84H59.87V45.72Z" fill="#1D1D1D"/>
<path d="M59.87 18.27H55.28V22.86H59.87V18.27Z" fill="#1D1D1D"/>
<path d="M59.87 13.71V9.15H55.28V4.56H50.72V0H46.16V4.56H41.57V9.15H37.01V13.71H41.57V18.27H46.16V22.86H50.72V18.27H55.28V13.71H59.87Z" fill="#1D1D1D"/>
<path d="M37.0099 82.29V91.41H32.45V96H64.4299V91.41H59.87V82.29H37.0099Z" fill="#1D1D1D"/>
<path d="M55.28 36.5701H50.72V45.7201H55.28V36.5701Z" fill="#1D1D1D"/>
<path d="M46.16 59.43H41.57V63.99H37.01V68.55H41.57V73.14H46.16V77.7H50.72V73.14H55.28V68.55H59.87V63.99H55.28V59.43H50.72V45.72H46.16V59.43Z" fill="#1D1D1D"/>
<path d="M50.7199 31.98H46.1599V36.57H50.7199V31.98Z" fill="#1D1D1D"/>
<path d="M46.1601 36.5701H41.5701V45.7201H46.1601V36.5701Z" fill="#1D1D1D"/>
<path d="M41.57 45.72H37.01V54.84H41.57V45.72Z" fill="#1D1D1D"/>
<path d="M41.57 18.27H37.01V22.86H41.57V18.27Z" fill="#1D1D1D"/>
<path d="M37.0099 77.7H32.45V82.29H37.0099V77.7Z" fill="#1D1D1D"/>
<path d="M37.0099 54.8401H32.45V59.4301H37.0099V54.8401Z" fill="#1D1D1D"/>
<path d="M37.0099 22.8601H32.45V27.4201H37.0099V22.8601Z" fill="#1D1D1D"/>
<path d="M32.4501 59.4299H27.8601V77.6999H32.4501V59.4299Z" fill="#1D1D1D"/>
<path d="M32.4501 27.4199H27.8601V31.9799H32.4501V27.4199Z" fill="#1D1D1D"/>
<path d="M27.8601 31.98H23.3V36.57H27.8601V31.98Z" fill="#1D1D1D"/>
<path d="M18.71 31.98H14.15V36.57H9.59V41.13H5V45.72H9.59V50.28H14.15V54.84H18.71V50.28H23.3V45.72H27.86V41.13H23.3V36.57H18.71V31.98Z" fill="#1D1D1D"/>
</svg>
