<svg width="1321" height="260" viewBox="0 0 1321 260" fill="none" xmlns="http://www.w3.org/2000/svg">
<path d="M278.347 0.69165C309.469 0.69165 340.591 0.69165 372.657 0.69165C372.657 149.82 372.657 298.948 372.657 452.595C341.534 452.595 310.412 452.595 278.347 452.595C278.347 387.973 278.347 323.351 278.347 256.77C217.398 256.77 156.45 256.77 93.6554 256.77C93.6554 321.177 93.6554 385.583 93.6554 451.941C62.7491 451.941 31.8428 451.941 0 451.941C0 303.245 0 154.549 0 1.34658C30.9063 1.34658 61.8126 1.34658 93.6554 1.34658C93.6554 58.6205 93.6554 115.894 93.6554 174.904C154.603 174.904 215.552 174.904 278.347 174.904C278.347 117.414 278.347 59.9238 278.347 0.69165Z" fill="#FF0000" fill-opacity="0.04"/>
<path d="M1005.98 0.69165C1109.72 0.69165 1213.46 0.69165 1320.35 0.69165C1320.35 27.9238 1320.35 55.1559 1320.35 83.2132C1252.7 83.2132 1185.05 83.2132 1115.35 83.2132C1115.35 111.31 1115.35 139.406 1115.35 168.355C1179.11 168.355 1242.87 168.355 1308.56 168.355C1308.56 195.371 1308.56 222.387 1308.56 250.221C1307.9 250.876 1307.9 250.876 1306.59 250.957C1306 250.957 1305.42 250.957 1304.81 250.957C1303.81 250.959 1303.81 250.959 1302.78 250.961C1302.03 250.959 1301.28 250.957 1300.51 250.955C1299.73 250.955 1298.94 250.956 1298.13 250.957C1295.93 250.957 1293.74 250.955 1291.55 250.952C1289.18 250.949 1286.82 250.95 1284.46 250.951C1280.36 250.951 1276.27 250.949 1272.17 250.945C1266.25 250.94 1260.33 250.938 1254.41 250.938C1244.8 250.936 1235.19 250.932 1225.59 250.926C1216.25 250.919 1206.92 250.915 1197.58 250.912C1196.71 250.912 1196.71 250.912 1195.82 250.912C1191.28 250.91 1186.74 250.909 1182.19 250.908C1159.91 250.901 1137.63 250.888 1115.35 250.876C1115.35 290.211 1115.35 329.547 1115.35 370.074C1183.22 370.074 1251.08 370.074 1321 370.074C1321 397.306 1321 424.538 1321 452.595C1217.04 452.595 1113.09 452.595 1005.98 452.595C1005.98 303.467 1005.98 154.339 1005.98 0.69165Z" fill="#FF0000" fill-opacity="0.04"/>
<path d="M453.869 1.34674C488.881 1.34674 523.894 1.34674 559.968 1.34674C559.968 150.259 559.968 299.171 559.968 452.596C524.955 452.596 489.942 452.596 453.869 452.596C453.869 303.683 453.869 154.771 453.869 1.34674Z" fill="#FF0000" fill-opacity="0.04"/>
<path d="M738.11 1.01904H644.127L644.454 453.905H738.11L966.681 61.6003L888.089 16.0825L738.11 270.851V1.01904Z" fill="#FF0000" fill-opacity="0.04"/>
</svg>
