<svg width="375" height="128" viewBox="0 0 375 128" fill="none" xmlns="http://www.w3.org/2000/svg">
<path d="M79.0159 0C87.8508 0 96.6857 0 105.788 0C105.788 42.118 105.788 84.236 105.788 127.63C96.9534 127.63 88.1185 127.63 79.0159 127.63C79.0159 109.379 79.0159 91.128 79.0159 72.3238C61.7142 72.3238 44.4125 72.3238 26.5865 72.3238C26.5865 90.5139 26.5865 108.704 26.5865 127.445C17.813 127.445 9.03941 127.445 0 127.445C0 85.4494 0 43.4535 0 0.184971C8.77355 0.184971 17.5471 0.184971 26.5865 0.184971C26.5865 16.3607 26.5865 32.5365 26.5865 49.2024C43.8882 49.2024 61.1899 49.2024 79.0159 49.2024C79.0159 32.9656 79.0159 16.7288 79.0159 0Z" fill="url(#paint0_linear_106_1055)" fill-opacity="0.04"/>
<path d="M285.573 0C315.022 0 344.472 0 374.814 0C374.814 7.69111 374.814 15.3822 374.814 23.3064C355.61 23.3064 336.407 23.3064 316.621 23.3064C316.621 31.2417 316.621 39.177 316.621 47.3527C334.72 47.3527 352.82 47.3527 371.467 47.3527C371.467 54.9828 371.467 62.6128 371.467 70.4741C371.281 70.6591 371.281 70.6591 370.908 70.6821C370.742 70.682 370.576 70.6819 370.405 70.6819C370.119 70.6824 370.119 70.6824 369.827 70.683C369.615 70.6824 369.403 70.6819 369.184 70.6813C368.961 70.6815 368.737 70.6817 368.507 70.6818C367.884 70.6821 367.262 70.6815 366.639 70.6806C365.968 70.6798 365.298 70.68 364.627 70.6802C363.464 70.6803 362.302 70.6797 361.139 70.6787C359.458 70.6772 357.777 70.6767 356.096 70.6764C353.368 70.676 350.641 70.6748 347.914 70.6731C345.264 70.6714 342.614 70.6701 339.964 70.6693C339.717 70.6692 339.717 70.6692 339.465 70.6691C338.175 70.6687 336.886 70.6684 335.596 70.668C329.271 70.6663 322.946 70.6625 316.621 70.6591C316.621 81.7685 316.621 92.8779 316.621 104.324C335.886 104.324 355.151 104.324 375 104.324C375 112.015 375 119.706 375 127.63C345.489 127.63 315.978 127.63 285.573 127.63C285.573 85.5123 285.573 43.3943 285.573 0Z" fill="url(#paint1_linear_106_1055)" fill-opacity="0.04"/>
<path d="M128.842 0.185059C138.782 0.185059 148.721 0.185059 158.961 0.185059C158.961 42.242 158.961 84.299 158.961 127.63C149.022 127.63 139.083 127.63 128.842 127.63C128.842 85.5734 128.842 43.5165 128.842 0.185059Z" fill="url(#paint2_linear_106_1055)" fill-opacity="0.04"/>
<path d="M209.532 0.0922852H182.852L182.945 128H209.532L274.417 17.2021L252.107 4.34663L209.532 76.3005V0.0922852Z" fill="url(#paint3_linear_106_1055)" fill-opacity="0.04"/>
<defs>
<linearGradient id="paint0_linear_106_1055" x1="52.8941" y1="0" x2="52.8941" y2="127.63" gradientUnits="userSpaceOnUse">
<stop offset="0.05" stop-color="white"/>
<stop offset="1" stop-color="white" stop-opacity="0"/>
</linearGradient>
<linearGradient id="paint1_linear_106_1055" x1="330.286" y1="0" x2="330.286" y2="127.63" gradientUnits="userSpaceOnUse">
<stop offset="0.05" stop-color="white"/>
<stop offset="1" stop-color="white" stop-opacity="0"/>
</linearGradient>
<linearGradient id="paint2_linear_106_1055" x1="143.902" y1="0.185059" x2="143.902" y2="127.63" gradientUnits="userSpaceOnUse">
<stop offset="0.05" stop-color="white"/>
<stop offset="1" stop-color="white" stop-opacity="0"/>
</linearGradient>
<linearGradient id="paint3_linear_106_1055" x1="228.635" y1="0.0922852" x2="228.635" y2="128" gradientUnits="userSpaceOnUse">
<stop offset="0.05" stop-color="white"/>
<stop offset="1" stop-color="white" stop-opacity="0"/>
</linearGradient>
</defs>
</svg>
