<svg width="48" height="48" viewBox="0 0 48 48" fill="none" xmlns="http://www.w3.org/2000/svg">
<path d="M22.6611 0.0093968C29.4439 -0.160816 35.552 1.97833 40.5414 6.67622C40.8787 7.00842 40.8787 7.00842 41.2228 7.34734C41.4266 7.54776 41.6304 7.74817 41.8404 7.95466C46.4916 12.8499 48.1306 19.1946 47.992 25.7913C47.9243 27.5152 47.624 29.0567 47.0467 30.6829C46.8609 31.2131 46.8609 31.2131 46.6713 31.754C45.3211 35.4326 43.3837 38.3893 40.6404 41.1839C40.4403 41.3881 40.2402 41.5923 40.0341 41.8026C35.5221 46.1043 29.3171 48.0223 23.1802 47.9998C16.6865 47.829 10.7612 44.7804 6.29603 40.1163C3.50817 36.9421 1.81968 33.2879 0.746207 29.2244C0.680141 28.9891 0.614076 28.7537 0.546008 28.5112C-0.871761 22.6923 0.589113 16.5361 3.56946 11.4664C7.4038 5.75867 12.7166 1.95564 19.3829 0.346669C20.5007 0.129958 21.527 0.0638842 22.6611 0.0093968ZM9.77335 8.22243C9.57403 8.39502 9.3747 8.56761 9.16934 8.74543C5.19415 12.4145 3.16364 17.4867 2.71066 22.7992C2.4748 28.8275 4.6215 34.1075 8.60856 38.5587C8.83434 38.8255 8.83434 38.8255 9.06469 39.0976C11.6547 41.9522 15.1692 43.6155 18.8005 44.6843C19.0265 44.7557 19.2524 44.8272 19.4853 44.9008C24.1655 46.1825 29.6713 45.0342 33.9428 42.9341C39.4913 39.659 43.0504 35.1198 44.7171 28.9328C44.7885 28.6853 44.8598 28.4379 44.9333 28.183C46.2791 22.7349 44.868 17.3347 42.0963 12.5978C41.4769 11.6592 40.8075 10.81 40.058 9.9726C39.8639 9.75451 39.6698 9.53642 39.4699 9.31172C35.3226 4.91038 29.7876 2.72887 23.7873 2.55261C18.5036 2.59999 13.6827 4.69047 9.77335 8.22243Z" fill="#F5F5F5"/>
<path d="M21.13 11.1394C23.148 11.1394 25.166 11.1394 27.2451 11.1394C27.3412 14.1234 27.4373 17.1075 27.5363 20.1819C28.7856 17.968 30.0348 15.754 31.3219 13.473C32.5588 13.7827 33.5128 14.3101 34.5979 14.9497C34.8817 15.1146 34.8817 15.1146 35.1712 15.283C35.636 15.5534 36.0999 15.8257 36.5635 16.0982C36.3912 17.2511 36.0358 18.0872 35.4567 19.0949C35.2921 19.3837 35.1275 19.6725 34.9579 19.97C34.7851 20.2686 34.6122 20.5671 34.4341 20.8747C34.2646 21.171 34.0951 21.4673 33.9205 21.7726C33.4443 22.6046 32.9656 23.4352 32.4867 24.2657C32.0976 24.9458 31.7097 25.6266 31.3219 26.3075C31.8135 26.0404 32.3048 25.773 32.7961 25.5054C33.0878 25.3467 33.3794 25.188 33.6799 25.0245C34.3583 24.6495 35.025 24.2627 35.6899 23.8646C36.5635 23.3906 36.5635 23.3906 37.4371 23.3906C37.8836 24.1483 38.3258 24.9079 38.7657 25.6694C38.8931 25.8847 39.0206 26.1 39.1519 26.3218C39.271 26.5295 39.3902 26.7373 39.513 26.9513C39.6243 27.1423 39.7356 27.3332 39.8503 27.5299C40.0579 28.0577 40.0579 28.0577 39.7667 28.9328C39.0874 29.3689 38.4206 29.7578 37.7101 30.136C35.8134 31.1491 35.8134 31.1491 34.0075 32.3135C31.6445 33.923 29.6802 34.4226 26.8084 34.4385C26.3649 34.4419 26.3649 34.4419 25.9126 34.4454C23.9913 34.3842 22.5588 34.0611 21.13 32.7248C20.4476 31.9018 19.9124 31.0272 19.3828 30.0996C19.2276 29.8292 19.0724 29.5588 18.9124 29.2802C18.407 28.3842 17.9112 27.4834 17.4172 26.581C16.0884 24.1688 14.7323 21.7934 13.1968 19.5062C12.9077 19.0642 12.6476 18.6034 12.394 18.1401C12.7275 17.1381 12.8512 17.0851 13.7329 16.6053C13.9421 16.4896 14.1514 16.374 14.367 16.2549C14.5868 16.137 14.8066 16.0191 15.033 15.8977C15.2539 15.7764 15.4748 15.6551 15.7024 15.5302C16.2484 15.2309 16.7963 14.935 17.3444 14.6397C18.4255 15.6056 19.0595 16.6672 19.7468 17.9213C20.1072 18.5711 20.4675 19.2208 20.8388 19.8902C20.9349 17.0025 21.031 14.1147 21.13 11.1394Z" fill="#F5F5F5"/>
<path d="M10.9382 23.6821C12.3259 24.0835 13.4788 24.6937 14.6873 25.4688C14.86 25.5774 15.0327 25.6861 15.2106 25.7981C15.6317 26.0634 16.0515 26.331 16.4709 26.5991C15.5175 28.3595 14.5592 30.1154 13.5589 31.8496C12.315 31.4037 11.2313 30.7659 10.1192 30.063C9.85819 29.8999 9.85819 29.8999 9.59194 29.7337C9.16644 29.4677 8.74182 29.2003 8.31738 28.9326C8.76695 27.7249 9.33957 26.6179 9.95537 25.487C10.05 25.3127 10.1446 25.1384 10.242 24.9589C10.4734 24.5329 10.7057 24.1075 10.9382 23.6821Z" fill="#F5F5F5"/>
</svg>
