<svg width="321" height="372" viewBox="0 0 321 372" fill="none" xmlns="http://www.w3.org/2000/svg">
<path d="M159.374 222.59L119.975 333.785L40.5759 305.581C48.1619 287.736 79.2667 275.423 104.308 299.423L129.714 249.434L145.805 217.77L159.374 222.59Z" fill="white" stroke="#1D1D1D" stroke-width="3.0983" stroke-miterlimit="10" stroke-linecap="round" stroke-linejoin="round"/>
<path d="M289.486 292.769L213.425 329.039L162.755 222.519L175.752 216.32L195.026 246.15L225.46 293.24C247.887 266.777 280.096 275.807 289.486 292.769Z" fill="white" stroke="#1D1D1D" stroke-width="3.0983" stroke-miterlimit="10" stroke-linecap="round" stroke-linejoin="round"/>
<path d="M145.805 217.77L159.374 222.59L147.608 255.793H126.484L145.805 217.77Z" fill="#1D1D1D"/>
<path d="M200.307 254.325H177.884L162.755 222.519L175.752 216.32L200.307 254.325Z" fill="#1D1D1D"/>
<path d="M104.308 299.426C106.64 302.781 108.698 306.198 108.178 310.218L104.308 299.426Z" fill="white"/>
<path d="M104.308 299.426C106.64 302.781 108.698 306.198 108.178 310.218" stroke="#1D1D1D" stroke-width="3.0983" stroke-miterlimit="10" stroke-linecap="round" stroke-linejoin="round"/>
<path d="M225.98 292.992C224.006 296.57 222.311 300.182 223.245 304.128L225.98 292.992Z" fill="white"/>
<path d="M225.98 292.992C224.006 296.57 222.311 300.182 223.245 304.128" stroke="#1D1D1D" stroke-width="3.0983" stroke-miterlimit="10" stroke-linecap="round" stroke-linejoin="round"/>
<path d="M274.676 113.158L234.11 150.75C233.133 151.676 231.604 150.552 232.195 149.341L262.335 84.0928C269.03 70.3611 263.702 53.7827 250.263 46.5374C236.109 38.908 218.459 44.5302 211.312 58.9495L187.982 109.168C187.41 110.326 185.665 109.896 185.693 108.604L187.351 31.2352C187.694 15.1896 174.799 2 158.771 2C142.742 2 129.847 15.1927 130.19 31.2352L131.848 108.604C131.876 109.896 130.131 110.326 129.559 109.168L104.419 49.1456C97.2724 34.7293 79.6224 29.1041 65.4684 36.7335C52.029 43.9788 46.7015 60.5541 53.3965 74.2889L85.3459 149.341C85.9368 150.552 84.4085 151.676 83.4309 150.75L46.321 118.185C35.5299 107.963 18.4305 108.728 8.58923 119.87C-0.138323 129.752 -0.20329 144.58 8.43764 154.539L94.6056 226.477C105.326 235.838 119.068 240.996 133.29 240.996H186.646C201.124 240.996 215.096 235.653 225.887 225.988L312.562 149.511C321.203 139.552 321.138 124.724 312.411 114.843C302.566 103.701 285.464 102.936 274.676 113.158Z" fill="white" stroke="#1D1D1D" stroke-width="3.0983" stroke-miterlimit="10"/>
<path d="M142.757 188.879C154.419 188.879 163.872 178.992 163.872 166.796C163.872 154.6 154.419 144.713 142.757 144.713C131.096 144.713 121.642 154.6 121.642 166.796C121.642 178.992 131.096 188.879 142.757 188.879Z" fill="white" stroke="#1D1D1D" stroke-width="3.0983" stroke-miterlimit="10"/>
<path d="M191.017 137.347H175.062C172.037 137.347 169.58 134.891 169.58 131.858C169.58 128.826 172.033 126.369 175.062 126.369H191.017C194.043 126.369 196.499 128.826 196.499 131.858C196.499 134.891 194.046 137.347 191.017 137.347Z" fill="white" stroke="#1D1D1D" stroke-width="3.0983" stroke-miterlimit="10"/>
<path d="M144.685 136.474H128.73C125.704 136.474 123.248 134.017 123.248 130.985C123.248 127.952 125.701 125.496 128.73 125.496H144.685C147.71 125.496 150.167 127.952 150.167 130.985C150.167 134.017 147.713 136.474 144.685 136.474Z" fill="white" stroke="#1D1D1D" stroke-width="3.0983" stroke-miterlimit="10"/>
<path d="M176.538 188.879C188.2 188.879 197.653 178.992 197.653 166.796C197.653 154.6 188.2 144.713 176.538 144.713C164.877 144.713 155.423 154.6 155.423 166.796C155.423 178.992 164.877 188.879 176.538 188.879Z" fill="white" stroke="#1D1D1D" stroke-width="3.0983" stroke-miterlimit="10"/>
<path d="M148.345 198.206C153.799 203.431 164.76 203.208 169.76 197.431C174.218 192.782 182.206 198.258 179.654 204.048C177.07 210.37 170.716 214.038 164.349 215.267C154.495 217.163 142.587 213.973 137.677 204.491C134.246 197.778 144.152 192.119 148.345 198.206Z" fill="white" stroke="#1D1D1D" stroke-width="3.0983" stroke-miterlimit="10"/>
<path d="M168.439 171.9C166.551 156.809 186.036 156.004 183.997 171.9" stroke="#1D1D1D" stroke-width="6.50644" stroke-miterlimit="10" stroke-linecap="round" stroke-linejoin="round"/>
<path d="M133.73 171.591C131.842 156.499 151.327 155.694 149.288 171.591" stroke="#1D1D1D" stroke-width="6.50644" stroke-miterlimit="10" stroke-linecap="round" stroke-linejoin="round"/>
<path d="M158.003 201.938V215.787" stroke="#1D1D1D" stroke-width="3.0983" stroke-miterlimit="10" stroke-linecap="round" stroke-linejoin="round"/>
<path d="M165.029 201.04L168.278 213.588" stroke="#1D1D1D" stroke-width="3.0983" stroke-miterlimit="10" stroke-linecap="round" stroke-linejoin="round"/>
<path d="M169.939 198.289L176.996 207.666" stroke="#1D1D1D" stroke-width="3.0983" stroke-miterlimit="10" stroke-linecap="round" stroke-linejoin="round"/>
<path d="M151.336 200.42L148.088 212.969" stroke="#1D1D1D" stroke-width="3.0983" stroke-miterlimit="10" stroke-linecap="round" stroke-linejoin="round"/>
<path d="M146.426 197.67L139.369 207.046" stroke="#1D1D1D" stroke-width="3.0983" stroke-miterlimit="10" stroke-linecap="round" stroke-linejoin="round"/>
<path d="M162.449 372C237.359 372 298.086 367.911 298.086 362.868C298.086 357.825 237.359 353.736 162.449 353.736C87.5383 353.736 26.8113 357.825 26.8113 362.868C26.8113 367.911 87.5383 372 162.449 372Z" fill="#1D1D1D"/>
</svg>
