<svg width="291" height="394" viewBox="0 0 291 394" fill="none" xmlns="http://www.w3.org/2000/svg">
<path d="M135.861 394C210.895 394 271.722 389.908 271.722 384.861C271.722 379.813 210.895 375.721 135.861 375.721C60.827 375.721 0 379.813 0 384.861C0 389.908 60.827 394 135.861 394Z" fill="#1D1D1D"/>
<path d="M184.665 357.963L186.688 340.472L159.102 328.576L149.096 324.264L131.519 316.687L121.934 312.554L111.628 308.108C104.649 305.101 101.683 296.805 105.173 290.053L107.683 285.195L119.895 261.559H144.621L134.894 285.195L130.298 296.365L138.721 298.823L155.071 303.591L165.449 306.617L210.435 319.74L216.249 385.459H152.21C157.553 357.963 173.091 355.821 184.665 357.963Z" fill="white" stroke="#1D1D1D" stroke-width="3.0983" stroke-miterlimit="10" stroke-linecap="round" stroke-linejoin="round"/>
<path d="M178.47 261.559L171.637 285.195L166.323 303.591L165.449 306.617L160.348 324.264L159.102 328.576L142.66 385.459H52.4143C53.2882 345.478 85.8233 337.263 116.521 353.899L131.519 316.687L133.186 312.554L138.721 298.823L144.215 285.195L153.744 261.559H178.47Z" fill="white" stroke="#1D1D1D" stroke-width="3.0983" stroke-miterlimit="10" stroke-linecap="round" stroke-linejoin="round"/>
<path d="M184.668 357.963C184.668 357.963 193.921 360.018 197.333 367.056" stroke="#1D1D1D" stroke-width="3.0983" stroke-miterlimit="10" stroke-linecap="round" stroke-linejoin="round"/>
<path d="M116.521 353.896C116.521 353.896 123.283 356.844 126.694 363.881" stroke="#1D1D1D" stroke-width="3.0983" stroke-miterlimit="10" stroke-linecap="round" stroke-linejoin="round"/>
<path d="M144.621 261.559L134.894 285.195H107.683L119.895 261.559H144.621Z" fill="#1D1D1D" stroke="#1D1D1D" stroke-width="0.30983" stroke-miterlimit="10"/>
<path d="M178.471 261.559L171.638 285.195H144.216L153.745 261.559H178.471Z" fill="#1D1D1D" stroke="#1D1D1D" stroke-width="0.30983" stroke-miterlimit="10"/>
<path d="M71.0944 242.725C79.0988 260.244 96.5857 271.479 115.839 271.479H161.358C186.019 271.479 209.719 261.921 227.485 244.808L281.499 200.059C290.231 190.486 291.471 176.247 284.526 165.306C275.694 151.389 258.586 149.554 243.587 157.345L202.8 176.885C202.226 177.295 201.507 176.616 201.885 176.017L262 110.454C273.138 96.6857 266.088 78.4068 251.821 70.526C237.879 62.8219 223.113 68.8209 213.038 82.3286L173.751 135.194C173.382 135.91 172.297 135.432 172.579 134.676L213.925 40.5624C219.797 24.7947 210.847 7.38689 194.609 2.99698C179.629 -1.05501 164.157 7.60081 159.759 22.4912L127.323 130.931C127.103 131.675 125.997 131.461 126.068 130.689L133.382 41.3591C134.699 27.3647 124.38 14.97 110.382 13.7362C95.6622 12.4403 82.9662 23.97 82.8298 38.7487L89.1143 133.274C89.1081 134.059 87.9708 134.149 87.8407 133.374L74.3172 86.1697C72.3401 74.3579 61.3019 66.2787 49.4487 67.9745C37.3352 69.7044 28.9466 80.9737 30.7594 93.0801L48.1503 165.427C52.1447 192.142 59.8672 218.162 71.0944 242.725Z" fill="white" stroke="#1D1D1D" stroke-width="3.0983" stroke-miterlimit="10" stroke-linecap="round" stroke-linejoin="round"/>
<path d="M112.347 226.662C124.027 226.662 133.496 216.767 133.496 204.561C133.496 192.355 124.027 182.459 112.347 182.459C100.666 182.459 91.1968 192.355 91.1968 204.561C91.1968 216.767 100.666 226.662 112.347 226.662Z" fill="white" stroke="#1D1D1D" stroke-width="3.0983" stroke-miterlimit="10"/>
<path d="M146.183 226.662C157.864 226.662 167.333 216.767 167.333 204.561C167.333 192.355 157.864 182.459 146.183 182.459C134.502 182.459 125.033 192.355 125.033 204.561C125.033 216.767 134.502 226.662 146.183 226.662Z" fill="white" stroke="#1D1D1D" stroke-width="3.0983" stroke-miterlimit="10"/>
<path d="M80.2452 199.576C80.2452 212.082 91.1068 222.22 104.506 222.22C114.407 222.22 122.92 216.686 126.694 208.749C130.462 216.686 138.975 222.22 148.876 222.22C162.279 222.22 173.137 212.082 173.137 199.576H80.2452Z" fill="#1D1D1D" stroke="#1D1D1D" stroke-width="3.0983" stroke-miterlimit="10"/>
<path d="M147.488 240.455C152.728 245.075 161.498 241.354 162.08 234.069" stroke="#1D1D1D" stroke-width="8.98508" stroke-miterlimit="10" stroke-linecap="round" stroke-linejoin="round"/>
<path d="M144.466 170.22L159.483 175.689C162.331 176.727 165.483 175.258 166.521 172.406C167.559 169.553 166.09 166.404 163.239 165.365L148.222 159.896C145.374 158.858 142.223 160.327 141.184 163.179C140.146 166.032 141.618 169.181 144.466 170.22Z" fill="white" stroke="#1D1D1D" stroke-width="3.0983" stroke-miterlimit="10"/>
<path d="M116.976 170.22L101.959 175.689C99.1112 176.727 95.9597 175.258 94.9215 172.406C93.8834 169.557 95.3523 166.404 98.2032 165.365L113.22 159.896C116.068 158.858 119.22 160.327 120.258 163.179C121.293 166.032 119.824 169.181 116.976 170.22Z" fill="white" stroke="#1D1D1D" stroke-width="3.0983" stroke-miterlimit="10"/>
</svg>
