<svg width="318" height="350" viewBox="0 0 318 350" fill="none" xmlns="http://www.w3.org/2000/svg">
<path d="M136.79 350C212.337 350 273.58 345.886 273.58 340.81C273.58 335.735 212.337 331.62 136.79 331.62C61.2429 331.62 0 335.735 0 340.81C0 345.886 61.2429 350 136.79 350Z" fill="#1D1D1D"/>
<path d="M242.007 338.139H157.045V219.403H171.563L176.193 254.856L183.506 310.828C215.39 296.501 240.806 318.659 242.007 338.139Z" fill="white" stroke="#1D1D1D" stroke-width="3.1234" stroke-miterlimit="10" stroke-linecap="round" stroke-linejoin="round"/>
<path d="M175.937 252.914H157.045V219.403H171.563L175.937 252.914Z" fill="#1D1D1D"/>
<path d="M184.089 310.828C180.741 313.222 177.634 315.772 176.776 319.762L184.089 310.828Z" fill="white"/>
<path d="M184.089 310.828C180.741 313.222 177.634 315.772 176.776 319.762" stroke="#1D1D1D" stroke-width="3.1234" stroke-miterlimit="10" stroke-linecap="round" stroke-linejoin="round"/>
<path d="M148.892 222.785L143.66 252.914L128.858 338.138H43.5803C49.9047 318.356 68.3661 298.742 103.851 312.52L126.165 252.914L137.444 222.785H148.892Z" fill="white" stroke="#1D1D1D" stroke-width="3.1234" stroke-miterlimit="10" stroke-linecap="round" stroke-linejoin="round"/>
<path d="M103.854 312.521C103.854 312.521 110.993 315.625 116.65 319.778L103.854 312.521Z" fill="white"/>
<path d="M103.854 312.521C103.854 312.521 110.993 315.625 116.65 319.778" stroke="#1D1D1D" stroke-width="3.1234" stroke-miterlimit="10" stroke-linecap="round" stroke-linejoin="round"/>
<path d="M137.445 222.785H148.892L143.66 252.914H126.166L137.445 222.785Z" fill="#1D1D1D"/>
<path d="M181.213 236.196H107.486C103.517 236.196 99.7452 234.469 97.1524 231.467L14.2773 135.497C4.71426 124.425 5.52236 107.803 16.115 97.7094C25.1663 89.0838 38.9071 87.656 49.5403 94.2367L89.371 118.888C90.3601 119.503 91.5925 118.595 91.3023 117.467L70.6007 37.7291C67.0438 24.0254 75.053 9.98189 88.6659 6.05408C102.75 1.9891 117.424 10.2781 121.205 24.4275L142.996 106.023C143.339 107.308 145.167 107.298 145.495 106.011L167.02 21.6594C170.574 7.73121 184.733 -0.70737 198.689 2.79026C212.242 6.18501 220.723 19.6331 217.936 33.315L202.274 110.222C202.04 111.366 203.328 112.208 204.283 111.535L253.387 76.8857C264.956 68.7215 281.005 71.8668 288.631 83.7937C295.264 94.1712 293.277 107.838 283.96 115.899L224.685 167.182C223.812 167.936 224.295 169.37 225.446 169.445L295.907 174.09C307.214 174.835 316 184.215 316 195.534C316 206.027 308.418 214.983 298.063 216.728L183.482 236.012C182.73 236.134 181.971 236.196 181.213 236.196Z" fill="white" stroke="#1D1D1D" stroke-width="3.1234" stroke-miterlimit="10"/>
<path d="M131.77 195.157C143.53 195.157 153.064 185.207 153.064 172.933C153.064 160.66 143.53 150.71 131.77 150.71C120.009 150.71 110.475 160.66 110.475 172.933C110.475 185.207 120.009 195.157 131.77 195.157Z" fill="white" stroke="#1D1D1D" stroke-width="3.1234" stroke-miterlimit="10"/>
<path d="M135.086 187.794C140.985 187.794 145.766 182.416 145.766 175.783C145.766 169.149 140.985 163.772 135.086 163.772C129.188 163.772 124.406 169.149 124.406 175.783C124.406 182.416 129.188 187.794 135.086 187.794Z" fill="#1D1D1D"/>
<path d="M187.132 172.933C187.132 185.209 177.597 195.16 165.838 195.16C154.078 195.16 144.543 185.209 144.543 172.933C144.543 172.525 144.553 172.12 144.574 171.718C145.18 160.009 154.468 150.71 165.838 150.71C177.207 150.71 186.496 160.009 187.101 171.718C187.123 172.12 187.132 172.525 187.132 172.933Z" fill="white" stroke="#1D1D1D" stroke-width="3.1234" stroke-miterlimit="10"/>
<path d="M168.633 187.794C174.531 187.794 179.313 182.416 179.313 175.783C179.313 169.149 174.531 163.772 168.633 163.772C162.735 163.772 157.953 169.149 157.953 175.783C157.953 182.416 162.735 187.794 168.633 187.794Z" fill="#1D1D1D"/>
<path d="M137.894 203.277C137.894 218.745 156.873 218.169 156.873 203.277" stroke="#1D1D1D" stroke-width="9.05785" stroke-miterlimit="10" stroke-linecap="round" stroke-linejoin="round"/>
<path d="M179.885 141.607L164.313 145.651C161.358 146.417 158.341 144.647 157.573 141.695C156.806 138.743 158.578 135.728 161.533 134.961L177.105 130.918C180.06 130.151 183.077 131.922 183.844 134.874C184.612 137.826 182.84 140.841 179.885 141.607Z" fill="white" stroke="#1D1D1D" stroke-width="3.1234" stroke-miterlimit="10"/>
<path d="M153.032 171.718H110.506C111.111 160.009 120.4 150.71 131.769 150.71C143.139 150.71 152.427 160.009 153.032 171.718Z" fill="white" stroke="#1D1D1D" stroke-width="3.1234" stroke-miterlimit="10"/>
<path d="M187.101 171.718H144.575C145.18 160.009 154.468 150.71 165.838 150.71C177.207 150.71 186.496 160.009 187.101 171.718Z" fill="white" stroke="#1D1D1D" stroke-width="3.1234" stroke-miterlimit="10"/>
<path d="M139.249 152.094L123.233 150.557C120.194 150.267 117.967 147.568 118.26 144.532C118.553 141.495 121.252 139.269 124.291 139.563L140.306 141.099C143.345 141.389 145.573 144.089 145.28 147.125C144.986 150.161 142.287 152.387 139.249 152.094Z" fill="white" stroke="#1D1D1D" stroke-width="3.1234" stroke-miterlimit="10"/>
</svg>
