<svg width="20" height="21" viewBox="0 0 20 21" fill="none" xmlns="http://www.w3.org/2000/svg">
<path fill-rule="evenodd" clip-rule="evenodd" d="M0 10.5056C0 5.10601 4.48842 0.717285 10 0.717285C15.5116 0.717285 20 5.10601 20 10.5056C20 15.8938 15.5116 20.2825 10 20.2825C4.48842 20.2825 0 15.8938 0 10.5056ZM13.668 11.4956C13.7741 11.3918 13.9093 11.2313 13.9382 11.1936C14.0927 10.9954 14.1699 10.75 14.1699 10.5056C14.1699 10.2309 14.083 9.97608 13.9189 9.76844C13.9055 9.75529 13.8791 9.72726 13.8448 9.69072C13.7806 9.62236 13.6885 9.52422 13.6004 9.4381C12.8089 8.60755 10.7432 7.24846 9.66216 6.83318C9.49807 6.76806 9.08301 6.62555 8.861 6.61611C8.64865 6.61611 8.44595 6.6633 8.2529 6.75768C8.01158 6.88981 7.81853 7.09745 7.71236 7.34284C7.64479 7.51273 7.53861 8.02239 7.53861 8.03183C7.43243 8.58867 7.37452 9.49473 7.37452 10.4952C7.37452 11.4494 7.43243 12.3167 7.51931 12.883C7.52169 12.8854 7.53 12.9259 7.5429 12.9888C7.58211 13.18 7.6638 13.5785 7.75097 13.7419C7.96332 14.1383 8.37838 14.3837 8.82239 14.3837H8.861C9.15058 14.3742 9.75869 14.1288 9.75869 14.1194C10.7819 13.7041 12.7992 12.4111 13.61 11.5522L13.668 11.4956Z" fill="white"/>
</svg>
