<svg width="152" height="152" viewBox="0 0 152 152" fill="none" xmlns="http://www.w3.org/2000/svg">
<g clip-path="url(#clip0_106_387)">
<path d="M144.758 108.587H123.051V101.319H130.271V94.0991H21.7333V101.319H28.9771V108.587H7.24585V152.002H144.758V108.587ZM36.1734 101.319H115.783V108.587H36.1734V101.319ZM137.538 144.782H14.4659V115.807H137.538V144.782Z" fill="#1D1D1D"/>
<path d="M137.534 7.22845H130.267V94.106H137.534V7.22845Z" fill="#1D1D1D"/>
<path d="M123.043 123.024H86.8483V130.292H123.043V123.024Z" fill="#1D1D1D"/>
<path d="M94.0706 50.6862H86.8506V57.9062H94.0706V50.6862Z" fill="#1D1D1D"/>
<path d="M94.0689 36.1899H86.8489V43.4099H94.0689V36.1899Z" fill="#1D1D1D"/>
<path d="M86.8562 57.9095H65.1487V65.1295H86.8562V57.9095Z" fill="#1D1D1D"/>
<path d="M65.1474 50.6862H57.8799V57.9062H65.1474V50.6862Z" fill="#1D1D1D"/>
<path d="M65.1462 36.2073H57.8787V43.4273H65.1462V36.2073Z" fill="#1D1D1D"/>
<path d="M28.9749 86.8776H123.072V14.4876H28.9749V86.8776ZM36.1711 21.7076H115.781V79.6101H36.1711V21.7076Z" fill="#1D1D1D"/>
<path d="M43.4421 123.024H28.9546V137.512H43.4421V123.024Z" fill="#1D1D1D"/>
<path d="M130.273 0.00445557H21.7356V7.22446H130.273V0.00445557Z" fill="#1D1D1D"/>
<path d="M21.7333 7.22845H14.4658V94.106H21.7333V7.22845Z" fill="#1D1D1D"/>
</g>
<defs>
<clipPath id="clip0_106_387">
<rect width="152" height="152" fill="white"/>
</clipPath>
</defs>
</svg>
