<svg width="64" height="64" viewBox="0 0 64 64" fill="none" xmlns="http://www.w3.org/2000/svg">
<path d="M36.58 12.2V15.24H33.54V21.34H36.58V18.28H39.62V15.24H60.96V18.28H57.92V21.34H60.96V24.38H64V12.2H36.58Z" fill="#1D1D1D"/>
<path d="M60.9599 24.3801H57.9199V30.4801H60.9599V24.3801Z" fill="#1D1D1D"/>
<path d="M54.8601 33.52H30.4801V30.48H27.4401V36.58H57.9201V30.48H54.8601V33.52Z" fill="#1D1D1D"/>
<path d="M57.92 21.3401H54.86V24.3801H57.92V21.3401Z" fill="#1D1D1D"/>
<path d="M54.8601 6.1001H51.8201V9.1401H54.8601V6.1001Z" fill="#1D1D1D"/>
<path d="M3.06 39.6201V6.1001H0V48.7601H3.06V51.8201H18.3V54.8601H21.34V51.8201H33.54V54.8601H36.58V51.8201H51.82V48.7601H54.86V39.6201H3.06Z" fill="#1D1D1D"/>
<path d="M54.86 24.3801H45.72V27.4401H54.86V24.3801Z" fill="#1D1D1D"/>
<path d="M45.7199 21.3401H42.6799V24.3801H45.7199V21.3401Z" fill="#1D1D1D"/>
<path d="M42.68 18.28H39.62V21.34H42.68V18.28Z" fill="#1D1D1D"/>
<path d="M18.3 57.9001V54.8601H15.24V60.9601H39.62V54.8601H36.58V57.9001H18.3Z" fill="#1D1D1D"/>
<path d="M33.54 21.3401H30.48V30.4801H33.54V21.3401Z" fill="#1D1D1D"/>
<path d="M27.4399 21.3401H18.2999V24.3801H27.4399V21.3401Z" fill="#1D1D1D"/>
<path d="M24.38 27.4399H15.24V30.4799H24.38V27.4399Z" fill="#1D1D1D"/>
<path d="M24.38 15.24H15.24V18.28H24.38V15.24Z" fill="#1D1D1D"/>
<path d="M15.2401 21.3401H12.2001V24.3801H15.2401V21.3401Z" fill="#1D1D1D"/>
<path d="M12.2 27.4399H9.14001V30.4799H12.2V27.4399Z" fill="#1D1D1D"/>
<path d="M12.2 15.24H9.14001V18.28H12.2V15.24Z" fill="#1D1D1D"/>
<path d="M51.8199 3.04004H3.05994V6.10004H51.8199V3.04004Z" fill="#1D1D1D"/>
</svg>
