<svg width="96" height="96" viewBox="0 0 96 96" fill="none" xmlns="http://www.w3.org/2000/svg">
<path d="M91.44 22.875H4.59V9.16504H0V86.865H4.59V27.435H91.44V86.865H96V9.16504H91.44V22.875Z" fill="white"/>
<path d="M91.4401 86.865H4.59009V91.425H91.4401V86.865Z" fill="white"/>
<path d="M82.29 59.4451H77.73V73.1551H82.29V59.4451Z" fill="white"/>
<path d="M77.7299 73.155H73.1399V77.715H77.7299V73.155Z" fill="white"/>
<path d="M77.7299 54.855H73.1399V59.445H77.7299V54.855Z" fill="white"/>
<path d="M73.1399 77.7148H59.4299V82.3048H73.1399V77.7148Z" fill="white"/>
<path d="M73.14 54.8549V50.2949H68.58V32.0249H13.71V59.4449H22.86V54.8549H18.3V36.5849H64.02V50.2949H59.43V54.8549H73.14Z" fill="white"/>
<path d="M59.4301 73.155H54.8701V77.715H59.4301V73.155Z" fill="white"/>
<path d="M59.4301 54.855H54.8701V59.445H59.4301V54.855Z" fill="white"/>
<path d="M54.87 59.4451H50.28V73.1551H54.87V59.4451Z" fill="white"/>
<path d="M32.0099 13.7249H27.4199V18.2849H32.0099V13.7249Z" fill="white"/>
<path d="M18.3 64.0049V68.5949H13.71V73.1549H45.72V59.4449H41.16V54.8549H36.57V50.2949H32.01V54.8549H27.42V59.4449H22.86V64.0049H18.3Z" fill="white"/>
<path d="M22.86 13.7249H18.3V18.2849H22.86V13.7249Z" fill="white"/>
<path d="M13.7099 13.7249H9.1499V18.2849H13.7099V13.7249Z" fill="white"/>
<path d="M91.4401 4.57495H4.59009V9.16495H91.4401V4.57495Z" fill="white"/>
</svg>
